<svg width="153" height="154" viewBox="0 0 153 154" fill="none" xmlns="http://www.w3.org/2000/svg">
<path d="M56.5494 0L59.8315 0.252476L65.8909 1.26238L70.9405 2.77723L76.2424 5.30199L79.7771 7.57427L82.3019 9.59407L84.8266 11.8664L86.5939 13.6337L89.8761 17.9258L92.1484 21.9654L93.9157 25.7525L95.1781 29.5396L96.188 34.8416L96.4405 37.1139L96.693 63.8763H96.188L93.1583 57.312L90.6336 53.5248L87.8563 50.2426L85.8365 48.2228L81.7969 45.1931L77.7573 42.9209L74.2226 41.406L69.9306 40.1436L64.6286 39.3862H60.084L56.5494 39.6387L56.2969 39.3862V1.26238L56.5494 0Z" fill="white"/>
<path d="M41.6585 56.5518H63.6238L63.8763 57.0567L58.8268 59.0765L55.2922 61.0963L52.2624 63.3686L49.7377 65.6409L47.7179 67.6607L44.9407 71.4478L42.4159 75.9924L40.6486 80.5369L39.3862 86.8488V96.6954H0V93.4132L1.0099 87.1013L3.02971 81.0419L5.80694 75.7399L8.07922 72.4577L10.099 69.933L13.6337 66.3983L17.9258 63.1161L22.4703 60.5914L27.2674 58.5716L32.5694 57.3092L35.5991 56.8042L41.6585 56.5518Z" fill="white"/>
<path d="M56.2969 89.3711H56.8018L59.0741 94.6731L61.0939 98.2077L63.3662 101.237L66.1434 104.267L68.4157 106.287L71.6979 108.559L74.7276 110.327L79.7771 112.346L84.8266 113.609L86.8464 113.861H96.4405V153.247H93.9157L87.3514 152.238L83.8167 151.228L79.7771 149.713L75.485 147.44L71.9504 144.916L68.6682 142.138L66.6484 140.119L63.8711 136.584L61.0939 132.039L59.3266 128.505L57.8117 123.96L56.8018 119.163L56.5494 117.143L56.2969 111.336V89.3711Z" fill="white"/>
<path d="M113.611 56.5518H152.24L152.997 56.8042V59.5815L151.988 65.8934L150.473 70.9429L148.453 75.4874L145.928 79.527L143.656 82.5567L140.626 85.8389L138.606 87.6063L134.314 90.636L130.275 92.9082L124.973 94.928L119.671 96.1904L115.884 96.6954H89.1211L90.131 95.9379L94.1706 94.1706L97.4528 92.4033L100.987 89.8785L104.017 87.1013L106.794 83.8191L109.572 79.527L111.591 74.9825L112.601 71.7003L113.611 66.1458V56.5518Z" fill="white"/>
</svg>
